<svg width="206" height="56" viewBox="0 0 206 56" fill="none" xmlns="http://www.w3.org/2000/svg">
<mask id="mask0_21_22957" style="mask-type:luminance" maskUnits="userSpaceOnUse" x="0" y="0" width="56" height="56">
<path d="M5.94264 0.21875H50.2762C51.7933 0.21875 53.2475 0.821613 54.3207 1.89484C55.3973 2.96807 56.0001 4.42554 56.0001 5.94264V50.2762C56.0001 51.7933 55.3973 53.2508 54.3207 54.324C53.2475 55.3973 51.7933 56.0001 50.2762 56.0001H5.94264C4.42223 56.0001 2.96807 55.3973 1.89484 54.324C0.821613 53.2508 0.21875 51.7933 0.21875 50.2762V5.94264C0.21875 4.42554 0.821613 2.96807 1.89484 1.89484C2.96807 0.821613 4.42223 0.21875 5.94264 0.21875Z" fill="white"/>
</mask>
<g mask="url(#mask0_21_22957)">
<path d="M0.21875 0.21875H56.0001V56.0001H0.21875V0.21875Z" fill="white"/>
</g>
<mask id="mask1_21_22957" style="mask-type:luminance" maskUnits="userSpaceOnUse" x="0" y="0" width="56" height="56">
<path d="M0 0H56V56H0V0Z" fill="white"/>
</mask>
<g mask="url(#mask1_21_22957)">
</g>
<path d="M44.8068 22.7479C44.4104 21.8013 43.7478 21.1179 42.8958 20.7747L42.8839 20.7718C42.4905 20.6179 42.0852 20.541 41.6651 20.541H41.6178C39.6653 20.5706 37.6713 22.2302 36.6566 24.6738C35.9141 26.4577 35.8283 28.3776 36.4288 29.8095C36.8253 30.7561 37.4879 31.4395 38.3458 31.7827L38.3547 31.7856C38.7482 31.9395 39.1535 32.0164 39.5736 32.0164C41.5468 32.0164 43.5614 30.3538 44.5938 27.8806C45.3275 26.0968 45.4103 24.1798 44.8068 22.7479Z" fill="#313131"/>
<path d="M37.003 33.2765C35.8759 32.602 34.8109 31.96 34.1157 30.8092C32.1957 27.626 31.039 25.7031 28.0008 25.7031C24.9596 25.7031 23.8 27.626 21.877 30.8092C21.1789 31.963 20.1109 32.602 18.9808 33.2824C17.6851 34.0604 16.3479 34.8651 15.7681 36.4508C15.5432 37.0247 15.4308 37.6223 15.4367 38.2435C15.4367 40.8202 17.4425 42.9177 19.9097 42.9177C21.1848 42.9177 22.5367 42.4769 23.9715 42.0095C25.3501 41.5598 26.776 41.0983 28.0067 41.0983C29.2374 41.0983 30.6603 41.5598 32.033 42.0095C33.4648 42.4739 34.8109 42.9147 36.0889 42.9147C38.5502 42.9147 40.556 40.8173 40.556 38.2405C40.5589 37.6193 40.4435 37.0217 40.2157 36.4478C39.6359 34.8621 38.2987 34.0575 37.003 33.2765Z" fill="#313131"/>
<path d="M20.398 23.1828C21.2529 24.2537 22.3357 24.8453 23.448 24.8453C23.5989 24.8453 23.7497 24.8335 23.9006 24.8098C26.2229 24.4696 27.6695 21.6355 27.1932 18.3577C26.995 16.9762 26.4655 15.6923 25.7052 14.7397C24.8532 13.6717 23.7675 13.083 22.6552 13.083C22.5043 13.083 22.3534 13.0948 22.2025 13.1185C19.8802 13.4587 18.4336 16.2898 18.9099 19.5706C19.1081 20.9492 19.6377 22.2302 20.398 23.1828Z" fill="#313131"/>
<path d="M32.0982 24.8098C32.249 24.8335 32.3999 24.8453 32.5537 24.8453C33.6661 24.8453 34.7488 24.2537 35.6008 23.1828C36.3611 22.2302 36.8877 20.9492 37.0889 19.5706C37.5652 16.2898 36.1185 13.4587 33.7962 13.1155C33.6454 13.0919 33.4945 13.083 33.3436 13.083C32.2313 13.083 31.1456 13.6717 30.2936 14.7397C29.5333 15.6923 29.0037 16.9762 28.8055 18.3577C28.3322 21.6355 29.7759 24.4696 32.0982 24.8098Z" fill="#313131"/>
<path d="M17.6437 31.7856L17.6526 31.7827C18.5105 31.4395 19.1702 30.7561 19.5666 29.8124C20.1701 28.3776 20.0843 26.4577 19.3418 24.6738C18.3152 22.2036 16.3006 20.541 14.3304 20.541C13.9103 20.541 13.502 20.6179 13.1115 20.7718L13.0997 20.7747C12.2477 21.1149 11.585 21.7983 11.1886 22.745C10.5881 24.1798 10.6739 26.0968 11.4164 27.8836C12.4429 30.3538 14.4576 32.0164 16.4278 32.0164C16.8479 32.0164 17.2532 31.9395 17.6437 31.7856Z" fill="#313131"/>
<path fill-rule="evenodd" clip-rule="evenodd" d="M179.484 12.3495C179.484 11.8525 179.499 11.4827 179.532 11.2372C179.561 10.9946 179.653 10.7136 179.804 10.397C180.103 9.82312 180.934 9.5332 182.301 9.5332C183.602 9.5332 184.413 9.82312 184.738 10.397C184.904 10.7136 185.002 11.0005 185.034 11.2609C185.073 11.5153 185.093 11.8851 185.093 12.3732V27.2004C185.093 27.9666 185.156 28.4517 185.283 28.6559C185.407 28.863 185.688 28.9635 186.123 28.9635C186.564 28.9635 186.859 28.9813 187.01 29.0109C187.158 29.0434 187.342 29.1351 187.555 29.283C187.981 29.5611 188.194 30.3185 188.194 31.555C188.194 32.8981 187.981 33.7176 187.555 34.0164C187.002 34.401 185.676 34.466 183.579 34.2057C181.937 33.9927 180.872 33.4484 180.384 32.5727C179.783 31.5314 179.484 29.8688 179.484 27.579V12.3495ZM150.74 13.0478C150.74 12.1958 150.021 11.5154 148.586 11.0007C148.009 10.7877 147.509 10.6812 147.083 10.6812C146.657 10.6812 146.296 10.7965 146.006 11.0243C145.722 11.2462 145.524 11.474 145.415 11.7107C145.311 11.9414 145.178 12.3023 145.012 12.7993L141.486 23.544L137.806 12.4443C137.679 12.0982 137.38 11.7521 136.907 11.403C136.439 11.048 135.936 10.8705 135.392 10.8705C134.848 10.8705 134.401 10.9474 134.055 11.0953C133.265 11.4355 132.721 12.0538 132.422 12.9532L128.943 23.4848L125.416 12.7993C125.203 12.0893 124.961 11.5657 124.695 11.2255C124.425 10.8882 124.038 10.7167 123.535 10.7167C123.038 10.7167 122.482 10.8232 121.866 11.0362C120.438 11.5272 119.725 12.1958 119.725 13.0478C119.725 13.388 119.837 13.9117 120.068 14.6217L126.245 32.3835L126.47 32.8687C126.618 33.1852 126.91 33.5047 127.345 33.8272C127.786 34.1437 128.345 34.3005 129.026 34.3005C129.712 34.3005 130.304 34.0579 130.801 33.5668C130.99 33.3775 131.159 33.1645 131.309 32.9278C131.457 32.6912 131.552 32.5107 131.593 32.3835C131.641 32.2592 132.848 28.6974 135.214 21.698L138.954 32.7385C139.102 33.0787 139.406 33.4248 139.865 33.7798C140.329 34.1289 140.874 34.3005 141.498 34.3005C142.128 34.3005 142.672 34.1289 143.131 33.7798C143.587 33.4248 143.868 33.1408 143.971 32.9278C144.081 32.7148 144.16 32.5344 144.208 32.3835L150.349 14.6217C150.61 13.8495 150.74 13.3259 150.74 13.0478ZM86.7441 19.3901C86.7441 18.0027 86.4631 16.7454 85.904 15.6153C85.3508 14.4793 84.6378 13.58 83.7621 12.9173C81.993 11.5535 80.1707 10.8701 78.2951 10.8701H71.4436C70.0769 10.8701 69.2456 11.16 68.9468 11.734C68.7723 12.0594 68.6687 12.3434 68.6391 12.586C68.6066 12.8315 68.5918 13.1983 68.5918 13.6865V31.4601C68.5918 32.2027 68.6539 32.7559 68.7811 33.1168C69.0415 33.9067 69.9171 34.3001 71.4081 34.3001C72.7719 34.3001 73.6032 34.0132 73.905 33.4363C74.0765 33.1227 74.1801 32.8417 74.2126 32.5961C74.2422 32.3447 74.26 31.9749 74.26 31.4838V27.8746H78.2596C80.1589 27.8746 81.993 27.1883 83.7621 25.8156C84.6378 25.1618 85.3508 24.2743 85.904 23.1531C86.4631 22.0349 86.7441 20.7805 86.7441 19.3901ZM80.1766 21.5083C79.5613 21.9757 78.9341 22.2065 78.2951 22.2065H74.26V16.5383H78.2596C78.9223 16.5383 79.5613 16.7809 80.1766 17.2601C80.7979 17.7423 81.1115 18.4523 81.1115 19.3901C81.1115 20.3309 80.7979 21.035 80.1766 21.5083ZM101.817 26.7978C102.47 26.1677 102.799 25.1974 102.799 23.8868C102.799 22.5704 102.435 21.3604 101.71 20.254C100.329 18.1654 98.1542 17.1182 95.1899 17.1182C92.5866 17.1182 90.4122 17.9228 88.6697 19.5322C86.9332 21.1415 86.0664 23.2922 86.0664 25.9813C86.0664 28.1113 86.735 30.0461 88.0781 31.7797C88.7644 32.6731 89.717 33.389 90.9417 33.9333C92.1724 34.4777 93.5747 34.7498 95.1544 34.7498C99.6984 34.7498 101.97 33.8002 101.97 31.898C101.97 31.4957 101.831 31.0075 101.556 30.4307C101.065 29.4692 100.479 28.987 99.7931 28.987C99.4529 28.987 99.0269 29.1053 98.5151 29.342L98.1601 29.4722C97.456 29.7266 96.4857 29.8508 95.2491 29.8508C94.545 29.8508 93.8409 29.6497 93.1309 29.2473C92.4268 28.845 92.0777 28.345 92.0777 27.7445H99.6629C100.45 27.7445 101.169 27.4309 101.817 26.7978ZM97.2607 23.804C97.2607 24.4903 96.8584 24.8335 96.0537 24.8335H92.0186C92.0186 24.1886 92.3558 23.5851 93.0362 23.023C93.7226 22.455 94.4119 22.171 95.1071 22.171C95.7993 22.171 96.3318 22.3219 96.7046 22.6207C97.0744 22.9224 97.2607 23.3159 97.2607 23.804ZM113.399 23.1296L111.317 22.9994V27.4251C111.317 28.002 111.406 28.4191 111.589 28.6795C111.769 28.9339 112.11 29.0581 112.607 29.0581C113.11 29.0581 113.497 29.0759 113.766 29.1055C114.033 29.138 114.317 29.2356 114.618 29.4013C115.106 29.6853 115.352 30.4042 115.352 31.555C115.352 32.898 115.05 33.7175 114.453 34.0163C114.136 34.1672 113.852 34.2589 113.601 34.2885C113.355 34.321 113 34.3358 112.536 34.3358C110.317 34.3358 108.631 33.8358 107.471 32.833C106.317 31.833 105.743 30.135 105.743 27.7446V22.9994C105.341 23.0704 104.903 23.106 104.43 23.106C103.962 23.106 103.578 22.9255 103.27 22.5616C102.962 22.2007 102.809 21.5794 102.809 20.7038C102.809 19.8281 102.859 19.195 102.962 18.7986C103.072 18.4052 103.223 18.1212 103.412 17.9466C103.749 17.6715 104.175 17.5324 104.69 17.5324L105.743 17.6626V14.3611C105.743 13.873 105.758 13.5091 105.791 13.2724C105.829 13.0358 105.933 12.7814 106.098 12.5033C106.373 11.9767 107.193 11.7104 108.56 11.7104C110.009 11.7104 110.879 12.1069 111.163 12.8938C111.264 13.234 111.317 13.7783 111.317 14.5268V17.6626C112.255 17.5768 112.965 17.5324 113.447 17.5324C113.926 17.5324 114.29 17.5502 114.535 17.5798C114.778 17.6123 115.062 17.7159 115.387 17.8875C115.938 18.1655 116.216 18.985 116.216 20.3488C116.216 21.6919 115.926 22.5113 115.352 22.8101C115.027 22.961 114.743 23.0527 114.5 23.0823C114.254 23.1148 113.888 23.1296 113.399 23.1296ZM147.736 25.922C147.736 23.3601 148.63 21.2449 150.422 19.5794C152.212 17.9168 154.259 17.0825 156.564 17.0825C158.866 17.0825 160.901 17.9109 162.67 19.5675C164.445 21.2183 165.332 23.3246 165.332 25.8865C165.332 27.6556 164.874 29.2294 163.96 30.608C163.043 31.9807 161.927 32.9954 160.611 33.6492C159.3 34.2971 157.94 34.6195 156.528 34.6195C155.123 34.6195 153.759 34.2764 152.434 33.59C151.115 32.8978 150.002 31.8712 149.097 30.5134C148.189 29.1584 147.736 27.626 147.736 25.922ZM154.422 28.2059C155.108 28.7265 155.801 28.9869 156.505 28.9869C157.206 28.9869 157.907 28.7236 158.611 28.194C159.321 27.6586 159.676 26.8687 159.676 25.8274C159.676 24.7801 159.345 23.9991 158.682 23.4844C158.019 22.9726 157.301 22.7152 156.528 22.7152C155.762 22.7152 155.049 22.9844 154.387 23.5199C153.724 24.0494 153.393 24.8334 153.393 25.8747C153.393 26.9101 153.736 27.6852 154.422 28.2059ZM178.607 18.3135C178.338 18.0058 177.998 17.7898 177.589 17.6626C177.187 17.5295 176.814 17.4378 176.477 17.3905C176.137 17.3372 175.714 17.3076 175.211 17.3076C174.714 17.3076 174.134 17.491 173.471 17.852C172.809 18.2158 172.374 18.5028 172.17 18.7158C171.963 18.9288 171.809 19.1122 171.708 19.2601C171.708 18.8992 171.59 18.5472 171.353 18.207C171.037 17.71 170.235 17.4615 168.951 17.4615C167.584 17.4615 166.753 17.7514 166.454 18.3253C166.303 18.627 166.212 18.9022 166.182 19.1536C166.15 19.3992 166.135 19.766 166.135 20.2541V31.484V32.4188C166.182 33.0341 166.374 33.4927 166.715 33.7915C167.164 34.1553 167.901 34.3358 168.927 34.3358C170.268 34.3358 171.099 34.0607 171.424 33.5075C171.59 33.185 171.688 32.901 171.72 32.6555C171.75 32.4129 171.767 32.046 171.767 31.555V24.8336C171.767 24.2597 172.016 23.7686 172.513 23.3663C173.016 22.958 173.557 22.751 174.134 22.751C174.708 22.751 175.175 22.8397 175.53 23.0113C175.885 23.177 176.252 23.2598 176.631 23.2598C177.403 23.2598 177.992 22.8545 178.394 22.041C178.802 21.2304 179.009 20.4849 179.009 19.8045C179.009 19.1181 178.873 18.6211 178.607 18.3135ZM200.803 9.974C200.4 10.1012 200.116 10.3231 199.951 10.6367C199.791 10.9443 199.696 11.2224 199.667 11.465C199.634 11.7105 199.619 12.0774 199.619 12.5655V19.2868C198.744 18.2218 197.516 17.6893 195.939 17.6893C194.037 17.6893 192.288 18.5354 190.697 20.2217C189.111 21.9109 188.318 23.8723 188.318 26.1028C188.318 28.3275 189.105 30.28 190.685 31.9603C192.262 33.6348 194.013 34.469 195.939 34.469C197.539 34.469 198.785 33.9572 199.678 32.9307C199.85 33.972 200.678 34.4927 202.163 34.4927C203.645 34.4927 204.548 34.2057 204.873 33.6288C205.039 33.33 205.136 33.0579 205.169 32.8123C205.199 32.5698 205.216 32.2029 205.216 31.7118V12.601C205.216 12.1129 205.199 11.746 205.169 11.5005C205.136 11.2579 205.042 10.9739 204.885 10.6485C204.725 10.326 204.441 10.1012 204.033 9.974C203.631 9.84975 203.089 9.78467 202.412 9.78467C201.74 9.78467 201.205 9.84975 200.803 9.974ZM196.767 28.8955C195.977 28.8955 195.306 28.6085 194.756 28.0317C194.202 27.4578 193.927 26.8188 193.927 26.1147C193.927 25.4047 194.179 24.7598 194.685 24.174C195.196 23.5912 195.88 23.2983 196.732 23.2983C197.59 23.2983 198.27 23.6001 198.767 24.1977C199.27 24.7893 199.525 25.4343 199.525 26.1265C199.525 26.8217 199.258 27.4578 198.732 28.0317C198.211 28.6085 197.554 28.8955 196.767 28.8955ZM68 44.8937V39.4858H72.2718V44.8937H71.1358V40.4443H69.136V44.8937H68ZM80.2347 43.651C80.4152 43.2339 80.5069 42.7458 80.5069 42.1837C80.5069 41.6245 80.4152 41.1364 80.2347 40.7163C80.0513 40.2992 79.7732 39.9767 79.3945 39.746C79.0159 39.5182 78.5307 39.4028 77.939 39.4028C77.3474 39.4028 76.8622 39.5182 76.4835 39.746C76.1049 39.9767 75.8209 40.2992 75.6315 40.7163C75.4481 41.1275 75.3594 41.6127 75.3594 42.1718C75.3594 42.7339 75.4481 43.225 75.6315 43.651C75.8209 44.0711 76.1049 44.3935 76.4835 44.6213C76.8622 44.8521 77.3474 44.9645 77.939 44.9645C78.5218 44.9645 79.004 44.8521 79.3827 44.6213C79.7673 44.3935 80.0513 44.0711 80.2347 43.651ZM76.8859 43.5208C76.6729 43.1984 76.5664 42.7517 76.5664 42.1837C76.5664 41.6157 76.6729 41.1719 76.8859 40.8465C77.1048 40.524 77.4568 40.3613 77.939 40.3613C78.4272 40.3613 78.7792 40.524 78.9922 40.8465C79.2052 41.1719 79.3117 41.6157 79.3117 42.1837C79.3117 42.7517 79.2052 43.1984 78.9922 43.5208C78.7792 43.8462 78.4272 44.006 77.939 44.006C77.4568 44.006 77.1048 43.8462 76.8859 43.5208ZM90.3958 44.8937H83.6035V39.4858H84.7395V43.9352H86.4198V39.4858H87.5795V43.9352H89.2598V39.4858H90.3958V44.8937ZM96.395 43.308L98.0635 39.4858H96.8802L95.9454 41.7578C95.898 41.8703 95.8448 42.0004 95.7915 42.1483C95.7353 42.2903 95.6909 42.4087 95.6614 42.5033H95.6259C95.5933 42.4087 95.546 42.2903 95.4839 42.1483C95.4188 42.0063 95.3714 41.8998 95.3419 41.8288L94.336 39.4858H93.1172L94.9869 43.3672C94.9218 43.5506 94.836 43.7044 94.7265 43.8287C94.6141 43.947 94.4336 44.0062 94.1822 44.0062C94.0461 44.0062 93.91 44.0003 93.768 43.9825C93.626 43.9588 93.4959 43.9233 93.3775 43.876V44.8582C93.5018 44.8907 93.6438 44.9114 93.8035 44.9292C93.9603 44.9528 94.1023 44.9647 94.2295 44.9647C94.6555 44.9647 94.9987 44.8996 95.259 44.7753C95.5194 44.6422 95.7353 44.4529 95.9099 44.2073C96.0814 43.9559 96.2441 43.6571 96.395 43.308ZM105.123 44.8937H103.821L101.857 42.1483V44.8937H100.721V39.4858H101.857V42.101L103.797 39.4858H105.016L103.052 42.0892L105.123 44.8937ZM115.577 43.9352V39.4858H112.429C112.34 40.1574 112.231 40.7579 112.098 41.2845C111.97 41.814 111.825 42.2963 111.66 42.7282C111.494 43.163 111.311 43.5654 111.115 43.9352H110.701V46.4675H111.814V44.8937H115.198V46.4675H116.298V43.9352H115.577ZM113.34 40.4443H114.441V43.9352H112.322C112.488 43.5802 112.636 43.2015 112.772 42.7992C112.905 42.3909 113.021 41.9827 113.115 41.5803C113.216 41.1721 113.293 40.7934 113.34 40.4443ZM120.831 39.4858C121.523 39.4858 122.029 39.6367 122.346 39.9355C122.668 40.2373 122.831 40.6514 122.831 41.178C122.831 41.4945 122.763 41.7904 122.63 42.0655C122.503 42.3347 122.287 42.5507 121.979 42.7163C121.671 42.882 121.257 42.9648 120.737 42.9648H120.24V44.8937H119.104V39.4858H120.831ZM120.76 40.4207H120.24V42.03H120.618C120.941 42.03 121.198 41.9679 121.387 41.8407C121.577 41.7076 121.671 41.4975 121.671 41.2135C121.671 40.6869 121.367 40.4207 120.76 40.4207ZM128.491 43.308L130.159 39.4858H128.976L128.041 41.7578C127.994 41.8703 127.94 42.0004 127.887 42.1483C127.831 42.2903 127.787 42.4087 127.757 42.5033H127.722C127.689 42.4087 127.642 42.2903 127.58 42.1483C127.514 42.0063 127.467 41.8998 127.438 41.8288L126.432 39.4858H125.213L127.083 43.3672C127.017 43.5506 126.932 43.7044 126.822 43.8287C126.71 43.947 126.529 44.0062 126.278 44.0062C126.142 44.0062 126.006 44.0003 125.864 43.9825C125.722 43.9588 125.592 43.9233 125.473 43.876V44.8582C125.597 44.8907 125.739 44.9114 125.899 44.9292C126.056 44.9528 126.198 44.9647 126.325 44.9647C126.751 44.9647 127.094 44.8996 127.355 44.7753C127.615 44.6422 127.831 44.4529 128.006 44.2073C128.177 43.9559 128.34 43.6571 128.491 43.308ZM136.224 39.4858V40.4325H133.952V44.8937H132.816V39.4858H136.224ZM141.943 43.6036L142.334 44.8934H143.576L141.659 39.4619H140.251L138.346 44.8934H139.576L139.979 43.6036H141.943ZM141.28 41.3907L141.671 42.6451H140.263L140.653 41.3907C140.668 41.3375 140.695 41.2428 140.736 41.1067C140.768 40.9976 140.799 40.8826 140.832 40.7616C140.84 40.7349 140.847 40.708 140.854 40.6807C140.902 40.5328 140.937 40.4056 140.961 40.3021C140.985 40.4056 141.014 40.5269 141.056 40.6689C141.094 40.805 141.132 40.9381 141.174 41.0712C141.212 41.1985 141.248 41.305 141.28 41.3907Z" fill="white"/>
</svg>
