<svg width="44" height="44" viewBox="0 0 44 44" fill="none" xmlns="http://www.w3.org/2000/svg">
<mask id="mask0_21_14451" style="mask-type:luminance" maskUnits="userSpaceOnUse" x="0" y="0" width="44" height="44">
<path d="M4.66921 0.171875H39.5028C40.6948 0.171875 41.8373 0.645553 42.6806 1.4888C43.5264 2.33205 44.0001 3.47721 44.0001 4.66921V39.5028C44.0001 40.6948 43.5264 41.8399 42.6806 42.6832C41.8373 43.5264 40.6948 44.0001 39.5028 44.0001H4.66921C3.47461 44.0001 2.33205 43.5264 1.4888 42.6832C0.645553 41.8399 0.171875 40.6948 0.171875 39.5028V4.66921C0.171875 3.47721 0.645553 2.33205 1.4888 1.4888C2.33205 0.645553 3.47461 0.171875 4.66921 0.171875Z" fill="white"/>
</mask>
<g mask="url(#mask0_21_14451)">
<path d="M0.171875 0.171875H44.0001V44.0001H0.171875V0.171875Z" fill="#5E17EB"/>
</g>
<mask id="mask1_21_14451" style="mask-type:luminance" maskUnits="userSpaceOnUse" x="0" y="0" width="44" height="44">
<path d="M0 0H44V44H0V0Z" fill="white"/>
</mask>
<g mask="url(#mask1_21_14451)">
</g>
<path d="M36.6781 17.4128C36.3319 16.586 35.7532 15.9892 35.0091 15.6895L34.9987 15.6869C34.6551 15.5525 34.3011 15.4854 33.9342 15.4854H33.8929C32.1876 15.5112 30.4462 16.9607 29.56 19.0948C28.9115 20.6528 28.8365 22.3296 29.361 23.5801C29.7073 24.4069 30.286 25.0038 31.0353 25.3035L31.043 25.3061C31.3867 25.4404 31.7406 25.5076 32.1075 25.5076C33.8309 25.5076 35.5904 24.0555 36.4921 21.8956C37.1329 20.3376 37.2052 18.6633 36.6781 17.4128Z" fill="white"/>
<path d="M29.8628 26.6085C28.8785 26.0194 27.9483 25.4587 27.3411 24.4536C25.6643 21.6736 24.6541 19.9941 22.0006 19.9941C19.3445 19.9941 18.3317 21.6736 16.6523 24.4536C16.0425 25.4613 15.1098 26.0194 14.1228 26.6136C12.9912 27.2931 11.8233 27.9959 11.3169 29.3808C11.1206 29.882 11.0224 30.4039 11.0275 30.9465C11.0275 33.1969 12.7793 35.0288 14.9341 35.0288C16.0477 35.0288 17.2285 34.6438 18.4816 34.2356C19.6856 33.8429 20.9309 33.4398 22.0058 33.4398C23.0806 33.4398 24.3234 33.8429 25.5222 34.2356C26.7727 34.6412 27.9483 35.0262 29.0645 35.0262C31.2141 35.0262 32.9659 33.1944 32.9659 30.9439C32.9685 30.4014 32.8677 29.8794 32.6688 29.3782C32.1624 27.9933 30.9945 27.2906 29.8628 26.6085Z" fill="white"/>
<path d="M15.3602 17.7925C16.1069 18.7278 17.0525 19.2445 18.024 19.2445C18.1557 19.2445 18.2875 19.2342 18.4193 19.2135C20.4475 18.9164 21.7109 16.4412 21.295 13.5785C21.1219 12.3719 20.6594 11.2505 19.9954 10.4186C19.2512 9.48584 18.303 8.97168 17.3315 8.97168C17.1998 8.97168 17.068 8.98201 16.9362 9.00268C14.908 9.29981 13.6446 11.7724 14.0606 14.6378C14.2337 15.8418 14.6961 16.9605 15.3602 17.7925Z" fill="white"/>
<path d="M25.579 19.2135C25.7108 19.2342 25.8426 19.2445 25.9769 19.2445C26.9484 19.2445 27.894 18.7278 28.6382 17.7925C29.3022 16.9605 29.7621 15.8418 29.9378 14.6378C30.3537 11.7724 29.0903 9.29981 27.0621 9.0001C26.9303 8.97943 26.7985 8.97168 26.6668 8.97168C25.6953 8.97168 24.7471 9.48584 24.003 10.4186C23.3389 11.2505 22.8765 12.3719 22.7034 13.5785C22.29 16.4412 23.5508 18.9164 25.579 19.2135Z" fill="white"/>
<path d="M12.9548 25.3061L12.9625 25.3035C13.7118 25.0038 14.288 24.4069 14.6342 23.5827C15.1613 22.3296 15.0863 20.6528 14.4378 19.0948C13.5413 16.9374 11.7818 15.4854 10.061 15.4854C9.69412 15.4854 9.33757 15.5525 8.99652 15.6869L8.98618 15.6895C8.24207 15.9866 7.66332 16.5834 7.3171 17.4102C6.7926 18.6633 6.86753 20.3376 7.51604 21.8981C8.41259 24.0555 10.1721 25.5076 11.8929 25.5076C12.2598 25.5076 12.6137 25.4404 12.9548 25.3061Z" fill="white"/>
</svg>
